<svg viewBox="0 0 210 210" fill="none" xmlns="http://www.w3.org/2000/svg">
  <path
    fill-rule="evenodd"
    clip-rule="evenodd"
    d="M105 17C135.803 17 151.205 17.0005 162.97 22.9951C173.318 28.2681 181.732 36.6817 187.005 47.0303C193 58.7954 193 74.1971 193 105C193 135.803 193 151.205 187.005 162.97C181.732 173.318 173.318 181.732 162.97 187.005C151.205 193 135.803 193 105 193C74.1971 193 58.7954 193 47.0303 187.005C36.6817 181.732 28.2681 173.318 22.9951 162.97C17.0005 151.205 17 135.803 17 105C17 74.1971 17.0005 58.7954 22.9951 47.0303C28.2681 36.6817 36.6817 28.2681 47.0303 22.9951C58.7954 17.0005 74.1971 17 105 17ZM99.7109 121.999C98.385 121.999 97.1134 122.525 96.1758 123.463L71.5303 148.108C70.9006 148.738 71.3466 149.815 72.2373 149.815H132.947C134.273 149.815 135.546 149.288 136.483 148.351L161.128 123.706C161.758 123.076 161.312 121.999 160.421 121.999H99.7109ZM88.0781 54.002C88.0781 53.1111 87.001 52.665 86.3711 53.2949L63.4648 76.2012C62.5273 77.1388 62 78.4113 62 79.7373V140.906C62.0006 141.627 62.8727 141.988 63.3828 141.479L86.6133 118.248C87.5509 117.31 88.078 116.038 88.0781 114.712V54.002Z"
    fill="#E4AB25"
  />
</svg>
